<svg width="24" height="24" viewBox="0 0 24 24" fill="none" xmlns="http://www.w3.org/2000/svg">
<path d="M7.38411 4.10062L4.09604 9.79584L6.64787 11.2692C6.97741 11.4594 7.08324 11.8811 6.89786 12.2022C6.71248 12.5233 6.29443 12.6424 5.96488 12.4522L3.41306 10.9788L2.84716 11.959C0.920179 15.2967 1.28305 16.9709 4.35711 18.8471C4.50432 18.9434 4.7039 18.9685 4.87716 18.9221C5.05888 18.8805 5.20096 18.771 5.29853 18.602C5.98151 17.419 7.5227 17.0132 8.70567 17.6962C9.88863 18.3792 10.3078 19.9169 9.6248 21.0998C9.53211 21.2604 9.50345 21.4466 9.55832 21.6248C9.60475 21.7981 9.72627 21.9583 9.88324 22.0377C13.0451 23.7619 14.6764 23.239 16.6034 19.9013L17.1693 18.9211L14.6174 17.4478C14.2879 17.2576 14.1821 16.8359 14.3674 16.5148C14.5528 16.1937 14.9709 16.0746 15.3004 16.2648L17.8522 17.7382L21.1403 12.0429C23.1405 8.57849 22.694 6.91243 19.2296 4.91221L14.5147 2.18997C11.0503 0.18975 9.38426 0.636166 7.38411 4.10062ZM15.0656 6.48511L15.3724 7.71003C15.3782 7.75846 15.424 7.79618 15.4711 7.81213L16.6516 8.24581C16.8654 8.32422 17.0243 8.51735 17.0451 8.75465C17.0707 8.9835 16.9656 9.2045 16.7702 9.32828L15.7022 10.0073C15.6658 10.0313 15.6365 10.082 15.6339 10.1256L15.5799 11.3901C15.5782 11.4905 15.5463 11.5848 15.4976 11.6693C15.4341 11.7791 15.3418 11.861 15.2205 11.9149C15.0095 12.0072 14.7664 11.9794 14.5831 11.8286L13.6173 11.0231C13.58 10.9902 13.528 10.9827 13.4795 10.9886L12.2654 11.3354C12.0472 11.4009 11.8067 11.3297 11.655 11.1632C11.4948 10.9918 11.4523 10.7532 11.544 10.5358L12.0079 9.36153C12.0238 9.3144 12.018 9.26596 11.9988 9.2211L11.2967 8.17354C11.173 7.97814 11.1656 7.73727 11.2826 7.53447C11.3997 7.33168 11.612 7.21765 11.8382 7.2356L13.0965 7.31987C13.1485 7.32737 13.1934 7.3082 13.2177 7.26595L14.0027 6.27706C14.1452 6.0889 14.3815 6.01129 14.6015 6.05946C14.8313 6.09074 15.0049 6.25853 15.0656 6.48511Z" fill="#9A9A9A"/>
</svg>
