<svg width="18" height="18" viewBox="0 0 18 18" fill="none" xmlns="http://www.w3.org/2000/svg">
<g clip-path="url(#clip0_1968_82556)">
<g clip-path="url(#clip1_1968_82556)">
<path fill-rule="evenodd" clip-rule="evenodd" d="M8.99994 2.43091C11.7078 2.37961 12.9476 2.04599 14.6737 1.07008C14.7473 1.02847 14.8395 1.03664 14.9038 1.09149L17.8513 3.60494C17.9339 3.67544 17.9438 3.80059 17.8758 3.88528C16.9327 5.05887 16.2854 6.03195 15.8984 6.9206L13.1774 4.15669C13.1416 4.12042 13.0929 4.09999 13.042 4.09999H4.95804C4.90713 4.09999 4.85836 4.12042 4.82264 4.15669L2.10156 6.92068C1.71448 6.03201 1.06725 5.05891 0.124096 3.88528C0.0560398 3.80059 0.0659564 3.67544 0.148624 3.60494L3.09607 1.09149C3.16039 1.03664 3.25259 1.02847 3.32618 1.07008C5.05233 2.04599 6.29207 2.37961 8.99994 2.43091ZM2.44859 7.97752C2.69542 9.12738 2.48112 10.2079 1.8978 11.5179C1.85936 11.6043 1.88471 11.707 1.96055 11.7635L8.88057 16.9112C8.95143 16.9639 9.04846 16.9639 9.11932 16.9112L16.0393 11.7635C16.1152 11.707 16.1405 11.6043 16.1021 11.5179C15.5188 10.208 15.3045 9.12749 15.5513 7.97769L9.14328 15.3355C9.06755 15.4224 8.93245 15.4224 8.85672 15.3355L2.44859 7.97752Z" fill="url(#paint0_linear_1968_82556)"/>
<g filter="url(#filter0_d_1968_82556)">
<path d="M13 7.80149L11.2889 6.20001H6.71111L5 7.80149L9 12.0334L13 7.80149Z" fill="white"/>
</g>
</g>
</g>
<defs>
<filter id="filter0_d_1968_82556" x="-1.66673" y="-0.466717" width="21.3335" height="19.1668" filterUnits="userSpaceOnUse" color-interpolation-filters="sRGB">
<feFlood flood-opacity="0" result="BackgroundImageFix"/>
<feColorMatrix in="SourceAlpha" type="matrix" values="0 0 0 0 0 0 0 0 0 0 0 0 0 0 0 0 0 0 127 0" result="hardAlpha"/>
<feOffset/>
<feGaussianBlur stdDeviation="3.33336"/>
<feComposite in2="hardAlpha" operator="out"/>
<feColorMatrix type="matrix" values="0 0 0 0 1 0 0 0 0 0.55181 0 0 0 0 0.138096 0 0 0 1 0"/>
<feBlend mode="normal" in2="BackgroundImageFix" result="effect1_dropShadow_1968_82556"/>
<feBlend mode="normal" in="SourceGraphic" in2="effect1_dropShadow_1968_82556" result="shape"/>
</filter>
<linearGradient id="paint0_linear_1968_82556" x1="8.99994" y1="1.04376" x2="8.99994" y2="16.9508" gradientUnits="userSpaceOnUse">
<stop stop-color="#FF9A38"/>
<stop offset="1" stop-color="#F27120"/>
</linearGradient>
<clipPath id="clip0_1968_82556">
<rect width="18" height="18" fill="white"/>
</clipPath>
<clipPath id="clip1_1968_82556">
<rect width="18" height="16" fill="white" transform="translate(0 1)"/>
</clipPath>
</defs>
</svg>
