<svg width="37" height="37" viewBox="0 0 37 37" fill="none" xmlns="http://www.w3.org/2000/svg"><g filter="url(#filter0_b_2976_54359)"><rect x="0.5" y="0.191406" width="36" height="36" rx="10.5" fill="white" fill-opacity="0.04"/><g clip-path="url(#clip0_2976_54359)"><path d="M18.5 10.8121C20.9047 10.8121 21.1895 10.8227 22.1352 10.8648C23.0141 10.9035 23.4887 11.0512 23.8051 11.1742C24.2234 11.3359 24.5258 11.5328 24.8387 11.8457C25.1551 12.1621 25.3484 12.4609 25.5102 12.8793C25.6332 13.1957 25.7809 13.6738 25.8195 14.5492C25.8617 15.4984 25.8723 15.7832 25.8723 18.1844C25.8723 20.5891 25.8617 20.8738 25.8195 21.8195C25.7809 22.6984 25.6332 23.173 25.5102 23.4895C25.3484 23.9078 25.1516 24.2102 24.8387 24.523C24.5223 24.8395 24.2234 25.0328 23.8051 25.1945C23.4887 25.3176 23.0105 25.4652 22.1352 25.5039C21.1859 25.5461 20.9012 25.5566 18.5 25.5566C16.0953 25.5566 15.8105 25.5461 14.8648 25.5039C13.9859 25.4652 13.5113 25.3176 13.1949 25.1945C12.7766 25.0328 12.4742 24.8359 12.1613 24.523C11.8449 24.2066 11.6516 23.9078 11.4898 23.4895C11.3668 23.173 11.2191 22.6949 11.1805 21.8195C11.1383 20.8703 11.1277 20.5855 11.1277 18.1844C11.1277 15.7797 11.1383 15.4949 11.1805 14.5492C11.2191 13.6703 11.3668 13.1957 11.4898 12.8793C11.6516 12.4609 11.8484 12.1586 12.1613 11.8457C12.4777 11.5293 12.7766 11.3359 13.1949 11.1742C13.5113 11.0512 13.9895 10.9035 14.8648 10.8648C15.8105 10.8227 16.0953 10.8121 18.5 10.8121ZM18.5 9.19141C16.0566 9.19141 15.7508 9.20195 14.791 9.24414C13.8348 9.28633 13.1773 9.44102 12.6078 9.6625C12.0137 9.89453 11.5109 10.2004 11.0117 10.7031C10.509 11.2023 10.2031 11.7051 9.97109 12.2957C9.74961 12.8687 9.59492 13.5227 9.55273 14.4789C9.51055 15.4422 9.5 15.748 9.5 18.1914C9.5 20.6348 9.51055 20.9406 9.55273 21.9004C9.59492 22.8566 9.74961 23.5141 9.97109 24.0836C10.2031 24.6777 10.509 25.1805 11.0117 25.6797C11.5109 26.1789 12.0137 26.4883 12.6043 26.7168C13.1773 26.9383 13.8313 27.093 14.7875 27.1352C15.7473 27.1773 16.0531 27.1879 18.4965 27.1879C20.9398 27.1879 21.2457 27.1773 22.2055 27.1352C23.1617 27.093 23.8191 26.9383 24.3887 26.7168C24.9793 26.4883 25.482 26.1789 25.9813 25.6797C26.4805 25.1805 26.7898 24.6777 27.0184 24.0871C27.2398 23.5141 27.3945 22.8602 27.4367 21.9039C27.4789 20.9441 27.4895 20.6383 27.4895 18.1949C27.4895 15.7516 27.4789 15.4457 27.4367 14.4859C27.3945 13.5297 27.2398 12.8723 27.0184 12.3027C26.7969 11.7051 26.491 11.2023 25.9883 10.7031C25.4891 10.2039 24.9863 9.89453 24.3957 9.66602C23.8227 9.44453 23.1688 9.28984 22.2125 9.24766C21.2492 9.20195 20.9434 9.19141 18.5 9.19141Z" fill="#FF9E48"/><path d="M18.5 13.5703C15.9477 13.5703 13.877 15.641 13.877 18.1934C13.877 20.7457 15.9477 22.8164 18.5 22.8164C21.0523 22.8164 23.123 20.7457 23.123 18.1934C23.123 15.641 21.0523 13.5703 18.5 13.5703ZM18.5 21.1922C16.8441 21.1922 15.5012 19.8492 15.5012 18.1934C15.5012 16.5375 16.8441 15.1945 18.5 15.1945C20.1559 15.1945 21.4988 16.5375 21.4988 18.1934C21.4988 19.8492 20.1559 21.1922 18.5 21.1922Z" fill="#FF9E48"/><path d="M24.3852 13.384C24.3852 13.9816 23.9 14.4633 23.3059 14.4633C22.7082 14.4633 22.2266 13.9781 22.2266 13.384C22.2266 12.7863 22.7117 12.3047 23.3059 12.3047C23.9 12.3047 24.3852 12.7898 24.3852 13.384Z" fill="#FF9E48"/></g><rect x="1" y="0.691406" width="35" height="35" rx="10" stroke="url(#paint0_linear_2976_54359)" stroke-opacity="0.4"/><rect x="1" y="0.691406" width="35" height="35" rx="10" stroke="url(#paint1_linear_2976_54359)" stroke-opacity="0.4"/></g><defs><filter id="filter0_b_2976_54359" x="-74.5" y="-74.8086" width="186" height="186" filterUnits="userSpaceOnUse" color-interpolation-filters="sRGB"><feFlood flood-opacity="0" result="BackgroundImageFix"/><feGaussianBlur in="BackgroundImageFix" stdDeviation="37.5"/><feComposite in2="SourceAlpha" operator="in" result="effect1_backgroundBlur_2976_54359"/><feBlend mode="normal" in="SourceGraphic" in2="effect1_backgroundBlur_2976_54359" result="shape"/></filter><linearGradient id="paint0_linear_2976_54359" x1="11.0763" y1="-1.216" x2="22.9073" y2="16.8798" gradientUnits="userSpaceOnUse"><stop stop-color="white"/><stop offset="1" stop-color="white" stop-opacity="0"/></linearGradient><linearGradient id="paint1_linear_2976_54359" x1="34.7891" y1="34.8909" x2="29.4042" y2="29.8768" gradientUnits="userSpaceOnUse"><stop stop-color="white"/><stop offset="1" stop-color="white" stop-opacity="0"/></linearGradient><clipPath id="clip0_2976_54359"><rect width="18" height="18" fill="white" transform="translate(9.5 9.19141)"/></clipPath></defs></svg>