<svg
    width="36"
    height="37"
    viewBox="0 0 36 37"
    fill="none"
    xmlns="http://www.w3.org/2000/svg"
>
    <g filter="url(#filter0_b_3669_2290)">
        <rect
            y="0.191406"
            width="36"
            height="36"
            rx="10.5"
            fill="white"
            fill-opacity="0.04"
        />
        <rect
            x="0.5"
            y="0.691406"
            width="35"
            height="35"
            rx="10"
            stroke="url(#paint0_linear_3669_2290)"
            stroke-opacity="0.4"
        />
        <rect
            x="0.5"
            y="0.691406"
            width="35"
            height="35"
            rx="10"
            stroke="url(#paint1_linear_3669_2290)"
            stroke-opacity="0.4"
        />
        <g clip-path="url(#clip0_3669_2290)">
            <path
                d="M25.8855 13.707C24.8583 13.707 23.9105 13.3667 23.1493 12.7926C22.2764 12.1345 21.6492 11.1691 21.4277 10.0564C21.3729 9.78148 21.3434 9.49777 21.3405 9.20703H18.4061V17.2255L18.4025 21.6175C18.4025 22.7918 17.6379 23.7874 16.5779 24.1375C16.2703 24.2391 15.9381 24.2873 15.5922 24.2683C15.1506 24.2441 14.7368 24.1108 14.3772 23.8957C13.6118 23.4379 13.0929 22.6075 13.0788 21.6576C13.0567 20.173 14.2569 18.9625 15.7405 18.9625C16.0334 18.9625 16.3146 19.0104 16.5779 19.0972V16.9055V16.1177C16.3002 16.0766 16.0175 16.0551 15.7317 16.0551C14.1079 16.0551 12.5891 16.7301 11.5035 17.9462C10.6829 18.8652 10.1907 20.0376 10.1148 21.267C10.0153 22.8821 10.6063 24.4174 11.7524 25.5501C11.9208 25.7164 12.0976 25.8707 12.2825 26.0131C13.2652 26.7693 14.4664 27.1793 15.7317 27.1793C16.0175 27.1793 16.3002 27.1582 16.5779 27.117C17.7599 26.942 18.8504 26.4009 19.7111 25.5501C20.7686 24.5049 21.3529 23.1173 21.3592 21.6404L21.3441 15.0816C21.8486 15.4708 22.4002 15.7929 22.9922 16.0428C23.9129 16.4313 24.8892 16.6282 25.894 16.6278V14.497V13.7063C25.8947 13.707 25.8863 13.707 25.8855 13.707Z"
                fill="#FF9E48"
            />
        </g>
    </g>
    <defs>
        <filter
            id="filter0_b_3669_2290"
            x="-75"
            y="-74.8086"
            width="186"
            height="186"
            filterUnits="userSpaceOnUse"
            color-interpolation-filters="sRGB"
        >
            <feFlood flood-opacity="0" result="BackgroundImageFix" />
            <feGaussianBlur in="BackgroundImageFix" stdDeviation="37.5" />
            <feComposite
                in2="SourceAlpha"
                operator="in"
                result="effect1_backgroundBlur_3669_2290"
            />
            <feBlend
                mode="normal"
                in="SourceGraphic"
                in2="effect1_backgroundBlur_3669_2290"
                result="shape"
            />
        </filter>
        <linearGradient
            id="paint0_linear_3669_2290"
            x1="10.5763"
            y1="-1.216"
            x2="22.4073"
            y2="16.8798"
            gradientUnits="userSpaceOnUse"
        >
            <stop stop-color="white" />
            <stop offset="1" stop-color="white" stop-opacity="0" />
        </linearGradient>
        <linearGradient
            id="paint1_linear_3669_2290"
            x1="34.2891"
            y1="34.8909"
            x2="28.9042"
            y2="29.8768"
            gradientUnits="userSpaceOnUse"
        >
            <stop stop-color="white" />
            <stop offset="1" stop-color="white" stop-opacity="0" />
        </linearGradient>
        <clipPath id="clip0_3669_2290">
            <rect
                width="18"
                height="18"
                fill="white"
                transform="translate(9 9.19141)"
            />
        </clipPath>
    </defs>
</svg>