<svg
    width="20"
    height="21"
    viewBox="0 0 20 21"
    fill="none"
    xmlns="http://www.w3.org/2000/svg"
>
    <path
        d="M2.92731 5.69797C2.92731 3.30085 4.87608 1.35205 7.27317 1.35205C9.67025 1.35205 11.619 3.30085 11.619 5.69797C11.6099 8.04934 9.77089 9.9524 7.4287 10.0347H7.36466C7.30976 10.0256 7.23657 10.0256 7.16337 10.0347C4.76629 9.9524 2.92731 8.04934 2.92731 5.69797Z"
        fill="#9A9A9A"
    />
    <path
        d="M2.63539 12.4675C5.20631 10.7657 9.36918 10.7657 11.9218 12.4675C13.0746 13.236 13.7059 14.279 13.715 15.4044C13.715 16.5389 13.0746 17.5819 11.9218 18.3596C10.6409 19.2196 8.95747 19.6497 7.27402 19.6497C5.59058 19.6497 3.90713 19.2196 2.62624 18.3596C1.47345 17.5911 0.833008 16.548 0.833008 15.4227C0.833008 14.2973 1.47345 13.2451 2.63539 12.4675Z"
        fill="#9A9A9A"
    />
    <path
        d="M17.3275 6.23608C17.4739 8.01105 16.2113 9.56643 14.4638 9.77686H14.4181C14.3632 9.77686 14.3083 9.77686 14.2626 9.79516C13.3751 9.84091 12.5608 9.55728 11.9478 9.03577C12.8902 8.19403 13.43 6.93143 13.3202 5.55903C13.2561 4.81794 13 4.14089 12.6157 3.56449C12.9634 3.39065 13.3659 3.28086 13.7777 3.24426C15.5709 3.08872 17.172 4.42452 17.3275 6.23608Z"
        fill="#9A9A9A"
    />
    <path
        d="M17.5644 16.8788C18.5159 16.3573 19.0832 15.5887 19.1564 14.7012C19.2387 13.8229 18.8087 12.972 17.967 12.295C16.4025 11.0324 13.859 10.639 11.837 11.2245C12.6147 11.5081 13.3283 11.8924 13.9413 12.3773C15.0209 13.2465 15.5607 14.3353 15.4692 15.4698C15.3961 16.2566 15.0118 16.9977 14.353 17.5924C15.4967 17.6199 16.6495 17.382 17.5644 16.8788Z"
        fill="#9A9A9A"
    />
</svg>