<svg width="18" height="18" viewBox="0 0 18 18" fill="none" xmlns="http://www.w3.org/2000/svg">
<g clip-path="url(#clip0_1968_82564)">
<g clip-path="url(#clip1_1968_82564)">
<path fill-rule="evenodd" clip-rule="evenodd" d="M9.00001 0L17.4375 7.875H13.3428L9.00001 3.82173L4.65723 7.875H0.562522L9.00001 0ZM8.99999 18L17.4375 10.125H13.3428L8.99999 14.1783L4.65721 10.125H0.5625L8.99999 18Z" fill="url(#paint0_linear_1968_82564)"/>
<path fill-rule="evenodd" clip-rule="evenodd" d="M9.00001 0L17.4375 7.875H13.3428L9.00001 3.82173L4.65723 7.875H0.562522L9.00001 0ZM8.99999 18L17.4375 10.125H13.3428L8.99999 14.1783L4.65721 10.125H0.5625L8.99999 18Z" fill="url(#paint1_linear_1968_82564)"/>
<g filter="url(#filter0_d_1968_82564)">
<path d="M6.61768 9L9.00003 6.61765L11.3824 9L9.00003 11.3824L6.61768 9Z" fill="white"/>
</g>
</g>
</g>
<defs>
<filter id="filter0_d_1968_82564" x="2.2756" y="2.27557" width="13.4488" height="13.4489" filterUnits="userSpaceOnUse" color-interpolation-filters="sRGB">
<feFlood flood-opacity="0" result="BackgroundImageFix"/>
<feColorMatrix in="SourceAlpha" type="matrix" values="0 0 0 0 0 0 0 0 0 0 0 0 0 0 0 0 0 0 127 0" result="hardAlpha"/>
<feOffset/>
<feGaussianBlur stdDeviation="2.17104"/>
<feComposite in2="hardAlpha" operator="out"/>
<feColorMatrix type="matrix" values="0 0 0 0 1 0 0 0 0 1 0 0 0 0 1 0 0 0 1 0"/>
<feBlend mode="normal" in2="BackgroundImageFix" result="effect1_dropShadow_1968_82564"/>
<feBlend mode="normal" in="SourceGraphic" in2="effect1_dropShadow_1968_82564" result="shape"/>
</filter>
<linearGradient id="paint0_linear_1968_82564" x1="9" y1="0" x2="9" y2="18" gradientUnits="userSpaceOnUse">
<stop stop-color="#FF9A38"/>
<stop offset="1" stop-color="#F27120"/>
</linearGradient>
<linearGradient id="paint1_linear_1968_82564" x1="11.0165" y1="0.0417476" x2="3.6887" y2="17.6625" gradientUnits="userSpaceOnUse">
<stop stop-color="#A5B4C1"/>
<stop offset="1" stop-color="#3E464D"/>
</linearGradient>
<clipPath id="clip0_1968_82564">
<rect width="18" height="18" fill="white"/>
</clipPath>
<clipPath id="clip1_1968_82564">
<rect width="16.875" height="18" fill="white" transform="translate(0.5625)"/>
</clipPath>
</defs>
</svg>
