<svg
    width="17"
    height="16"
    viewBox="0 0 17 16"
    fill="none"
    xmlns="http://www.w3.org/2000/svg"
>
    <path
        d="M7.20954 3.09182C7.80594 1.84197 8.10414 1.21704 8.58477 1.21704C9.0654 1.21704 9.3636 1.84197 9.96 3.09182L10.0533 3.28732C10.4889 4.20027 10.7067 4.65675 11.098 4.94098C11.4892 5.22522 11.9906 5.29132 12.9935 5.42352L13.2083 5.45183C14.5813 5.63281 15.2677 5.7233 15.4163 6.18041C15.5648 6.63751 15.0626 7.11423 14.0582 8.06766L13.9011 8.2168C13.1675 8.91323 12.8006 9.26145 12.6512 9.72135C12.5018 10.1813 12.5939 10.6786 12.778 11.6732L12.8175 11.8862C13.0696 13.2479 13.1957 13.9288 12.8069 14.2113C12.418 14.4938 11.8095 14.1635 10.5923 13.5029L10.4019 13.3996C9.51287 12.9171 9.06834 12.6758 8.58477 12.6758C8.1012 12.6758 7.65667 12.9171 6.76761 13.3996L6.57723 13.5029C5.36009 14.1635 4.75151 14.4938 4.36268 14.2113C3.97384 13.9288 4.09992 13.2479 4.35206 11.8862L4.3915 11.6732C4.57568 10.6786 4.66777 10.1813 4.51834 9.72135C4.36891 9.26145 4.00209 8.91323 3.26844 8.2168L3.11133 8.06766C2.10695 7.11423 1.60476 6.63751 1.75328 6.18041C1.9018 5.7233 2.58829 5.63281 3.96127 5.45183L4.17603 5.42352C5.17892 5.29132 5.68036 5.22522 6.07158 4.94098C6.4628 4.65675 6.68062 4.20027 7.11626 3.28732L7.20954 3.09182Z"
        fill="#0FA2B7"
    />
</svg>